<?xml version="1.0" encoding="UTF-8" standalone="no"?>
<svg
   width="256"
   height="128"
   viewBox="0 0 256 128"
   fill="none"
   version="1.1"
   id="svg853"
   xmlns="http://www.w3.org/2000/svg"
   xmlns:svg="http://www.w3.org/2000/svg">
  <mask
     id="mask2_0_1"
     maskUnits="userSpaceOnUse"
     x="1168"
     y="1998"
     width="80"
     height="80">
    <rect
       x="1168"
       y="1998"
       width="80"
       height="80"
       rx="4"
       fill="#c4c4c4"
       id="rect116" />
  </mask>
  <mask
     id="mask5_0_1"
     maskUnits="userSpaceOnUse"
     x="520"
     y="2449"
     width="168"
     height="168">
    <path
       d="m 520,2453 c 0,-2.21 1.791,-4 4,-4 h 160 c 2.209,0 4,1.79 4,4 v 164 H 520 Z"
       fill="#c4c4c4"
       id="path183" />
  </mask>
  <defs
     id="defs851" />
  <g
     id="New_Layer_1653429002.673255"
     style="display:inline"
     transform="translate(-120,-889)">
    <g
       id="g9195">
      <path
         opacity="0.12"
         fill-rule="evenodd"
         clip-rule="evenodd"
         d="m 120,893 c 0,-2.209 1.791,-4 4,-4 h 248 c 2.209,0 4,1.791 4,4 v 120 c 0,2.21 -1.791,4 -4,4 H 124 c -2.209,0 -4,-1.79 -4,-4 z"
         fill="#2196f3"
         id="path5458" />
      <path
         d="m 352,903 c -5.52,0 -10,4.48 -10,10 0,5.52 4.48,10 10,10 5.52,0 10,-4.48 10,-10 0,-5.52 -4.48,-10 -10,-10 z m -2,15 -5,-5 1.41,-1.41 3.59,3.58 7.59,-7.59 1.41,1.42 z"
         fill="#2196f3"
         id="path5460" />
    </g>
  </g>
</svg>
