<?xml version="1.0" encoding="UTF-8" standalone="no"?>
<svg
   width="256"
   height="128"
   viewBox="0 0 256 128"
   fill="none"
   version="1.1"
   id="svg853"
   xmlns="http://www.w3.org/2000/svg"
   xmlns:svg="http://www.w3.org/2000/svg">
  <mask
     id="mask2_0_1"
     maskUnits="userSpaceOnUse"
     x="1168"
     y="1998"
     width="80"
     height="80">
    <rect
       x="1168"
       y="1998"
       width="80"
       height="80"
       rx="4"
       fill="#c4c4c4"
       id="rect116" />
  </mask>
  <mask
     id="mask5_0_1"
     maskUnits="userSpaceOnUse"
     x="520"
     y="2449"
     width="168"
     height="168">
    <path
       d="m 520,2453 c 0,-2.21 1.791,-4 4,-4 h 160 c 2.209,0 4,1.79 4,4 v 164 H 520 Z"
       fill="#c4c4c4"
       id="path183" />
  </mask>
  <defs
     id="defs851" />
  <g
     id="New_Layer_1653429002.6736438"
     style="display:inline"
     transform="translate(-408,-889)">
    <path
       fill-rule="evenodd"
       clip-rule="evenodd"
       d="m 408,893 c 0,-2.209 1.791,-4 4,-4 h 248 c 2.209,0 4,1.791 4,4 v 120 c 0,2.21 -1.791,4 -4,4 H 412 c -2.209,0 -4,-1.79 -4,-4 z"
       fill="#000000"
       fill-opacity="0.08"
       id="path3193" />
  </g>
</svg>
