<?xml version="1.0" encoding="UTF-8" standalone="no"?>
<svg
   width="1440"
   height="2821"
   viewBox="0 0 1440 2821"
   fill="none"
   version="1.1"
   id="svg853"
   xmlns="http://www.w3.org/2000/svg"
   xmlns:svg="http://www.w3.org/2000/svg">
  <mask
     id="mask2_0_1"
     maskUnits="userSpaceOnUse"
     x="1168"
     y="1998"
     width="80"
     height="80">
    <rect
       x="1168"
       y="1998"
       width="80"
       height="80"
       rx="4"
       fill="#c4c4c4"
       id="rect116" />
  </mask>
  <mask
     id="mask5_0_1"
     maskUnits="userSpaceOnUse"
     x="520"
     y="2449"
     width="168"
     height="168">
    <path
       d="m 520,2453 c 0,-2.21 1.791,-4 4,-4 h 160 c 2.209,0 4,1.79 4,4 v 164 H 520 Z"
       fill="#c4c4c4"
       id="path183" />
  </mask>
  <defs
     id="defs851" />
  <g
     id="layer1"
     style="display:inline">
    <rect
       width="1440"
       height="2821"
       fill="#e5e5e5"
       id="rect2"
       x="0"
       y="0" />
    <rect
       width="1440"
       height="2821"
       fill="#f2f2f2"
       id="rect4"
       x="0"
       y="0" />
    <text
       fill="#000000"
       fill-opacity="0.87"
       xml:space="preserve"
       style="white-space:pre"
       font-family="Roboto"
       font-size="48px"
       letter-spacing="0px"
       id="text8"
       x="920"
       y="2223.99"><tspan
         x="64"
         y="100.531"
         id="tspan6">Cards</tspan></text>
    <path
       d="m 64,215 c 0,-2.761 2.2386,-5 5,-5 h 1302 c 2.76,0 5,2.239 5,5 v 861 c 0,2.76 -2.24,5 -5,5 H 69 c -2.7614,0 -5,-2.24 -5,-5 z"
       fill="#ffffff"
       id="path10" />
    <text
       fill="#000000"
       fill-opacity="0.6"
       xml:space="preserve"
       style="white-space:pre"
       font-family="Roboto"
       font-size="20px"
       font-weight="500"
       letter-spacing="0.15px"
       id="text22"
       x="920"
       y="2223.99"><tspan
         x="64"
         y="186.55499"
         id="tspan20">Cards elevation and overlay</tspan></text>
    <path
       d="m 64,1898 c 0,-2.76 2.2386,-5 5,-5 h 1302 c 2.76,0 5,2.24 5,5 v 854 c 0,2.76 -2.24,5 -5,5 H 69 c -2.7614,0 -5,-2.24 -5,-5 z"
       fill="#ffffff"
       id="path24" />
    <text
       fill="#000000"
       fill-opacity="0.6"
       xml:space="preserve"
       style="white-space:pre"
       font-family="Roboto"
       font-size="20px"
       font-weight="500"
       letter-spacing="0.15px"
       id="text200"
       x="920"
       y="2223.99"><tspan
         x="64"
         y="1869.55"
         id="tspan198">Cards example</tspan></text>
    <path
       d="m 64,1208 c 0,-2.76 2.2386,-5 5,-5 h 1302 c 2.76,0 5,2.24 5,5 v 558 c 0,2.76 -2.24,5 -5,5 H 69 c -2.7614,0 -5,-2.24 -5,-5 z"
       fill="#ffffff"
       id="path268" />
    <text
       fill="#000000"
       fill-opacity="0.6"
       xml:space="preserve"
       style="white-space:pre"
       font-family="Roboto"
       font-size="20px"
       font-weight="500"
       letter-spacing="0.15px"
       id="text372"
       x="920"
       y="2223.99"><tspan
         x="64"
         y="1179.55"
         id="tspan370">Cards elements</tspan></text>
    <text
       fill="#333333"
       xml:space="preserve"
       style="white-space:pre"
       font-family="Roboto"
       font-size="14px"
       font-weight="500"
       letter-spacing="0.1px"
       id="text428"
       x="920"
       y="2223.99"><tspan
         x="1189.0601"
         y="96.988297"
         id="tspan426">Material Design System</tspan></text>
    <path
       d="m 1352,92 c 0,-6.6274 5.37,-12 12,-12 6.63,0 12,5.3726 12,12 0,6.6274 -5.37,12 -12,12 -6.63,0 -12,-5.3726 -12,-12 z"
       fill="#333333"
       id="path430" />
    <path
       d="m 1361.6,99.2 c 1.33,0 2.4,-1.0746 2.4,-2.4 v -2.4 h -2.4 c -1.33,0 -2.4,1.0745 -2.4,2.4 0,1.3254 1.07,2.4 2.4,2.4 z"
       fill="#0acf83"
       id="path432" />
    <path
       d="m 1359.2,92 c 0,-1.3255 1.07,-2.4 2.4,-2.4 h 2.4 v 4.8 h -2.4 c -1.33,0 -2.4,-1.0745 -2.4,-2.4 z"
       fill="#a259ff"
       id="path434" />
    <path
       d="m 1359.2,87.2 c 0,-1.3255 1.07,-2.4 2.4,-2.4 h 2.4 v 4.8 h -2.4 c -1.33,0 -2.4,-1.0745 -2.4,-2.4 z"
       fill="#f24e1e"
       id="path436" />
    <path
       d="m 1364,84.8 h 2.4 c 1.33,0 2.4,1.0745 2.4,2.4 0,1.3255 -1.07,2.4 -2.4,2.4 h -2.4 z"
       fill="#ff7262"
       id="path438" />
    <path
       d="m 1368.8,92 c 0,1.3255 -1.07,2.4 -2.4,2.4 -1.33,0 -2.4,-1.0745 -2.4,-2.4 0,-1.3255 1.07,-2.4 2.4,-2.4 1.33,0 2.4,1.0745 2.4,2.4 z"
       fill="#1abcfe"
       id="path440" />
    <text
       fill="#9e9e9e"
       xml:space="preserve"
       style="white-space:pre"
       font-family="Roboto"
       font-size="14px"
       font-weight="500"
       letter-spacing="0.1px"
       id="text204"
       x="920"
       y="2223.99"><tspan
         x="120"
         y="340.98801"
         id="tspan202">Flat cards</tspan></text>
    <text
       fill="#9e9e9e"
       xml:space="preserve"
       style="white-space:pre"
       font-family="Roboto"
       font-size="14px"
       font-weight="500"
       letter-spacing="0.1px"
       id="text208"
       x="920"
       y="2223.99"><tspan
         x="432"
         y="340.98801"
         id="tspan206">Floating cards - light dark</tspan></text>
    <text
       fill="#9e9e9e"
       xml:space="preserve"
       style="white-space:pre"
       font-family="Roboto"
       font-size="14px"
       font-weight="500"
       letter-spacing="0.1px"
       id="text216"
       x="920"
       y="2223.99"><tspan
         x="432"
         y="565.98798"
         id="tspan214">Floating cards - white</tspan></text>
    <text
       fill="#9e9e9e"
       xml:space="preserve"
       style="white-space:pre"
       font-family="Roboto"
       font-size="14px"
       font-weight="500"
       letter-spacing="0.1px"
       id="text224"
       x="920"
       y="2223.99"><tspan
         x="744"
         y="340.98801"
         id="tspan222">Hover cards - light dark</tspan></text>
    <text
       fill="#9e9e9e"
       xml:space="preserve"
       style="white-space:pre"
       font-family="Roboto"
       font-size="14px"
       font-weight="500"
       letter-spacing="0.1px"
       id="text232"
       x="920"
       y="2223.99"><tspan
         x="744"
         y="565.98798"
         id="tspan230">Hover cards - white</tspan></text>
    <text
       fill="#9e9e9e"
       xml:space="preserve"
       style="white-space:pre"
       font-family="Roboto"
       font-size="14px"
       font-weight="500"
       letter-spacing="0.1px"
       id="text240"
       x="920"
       y="2223.99"><tspan
         x="1056"
         y="340.98801"
         id="tspan238">Dropdowns - light dark</tspan></text>
    <text
       fill="#9e9e9e"
       xml:space="preserve"
       style="white-space:pre"
       font-family="Roboto"
       font-size="14px"
       font-weight="500"
       letter-spacing="0.1px"
       id="text248"
       x="920"
       y="2223.99"><tspan
         x="1056"
         y="565.98798"
         id="tspan246">Dropdowns - white</tspan></text>
    <text
       fill="#9e9e9e"
       xml:space="preserve"
       style="white-space:pre"
       font-family="Roboto"
       font-size="14px"
       font-weight="500"
       letter-spacing="0.1px"
       id="text256"
       x="920"
       y="2223.99"><tspan
         x="120"
         y="868.98798"
         id="tspan254">Selected cards</tspan></text>
    <text
       fill="#9e9e9e"
       xml:space="preserve"
       style="white-space:pre"
       font-family="Roboto"
       font-size="14px"
       font-weight="500"
       letter-spacing="0.1px"
       id="text262"
       x="920"
       y="2223.99"><tspan
         x="408"
         y="868.98798"
         id="tspan260">Hover</tspan></text>
    <text
       fill="#000000"
       fill-opacity="0.87"
       xml:space="preserve"
       style="white-space:pre"
       font-family="Roboto"
       font-size="20px"
       font-weight="500"
       letter-spacing="0.15px"
       id="text266"
       x="920"
       y="2223.99"><tspan
         x="120"
         y="284.55499"
         id="tspan264">Elevation</tspan></text>
    <text
       fill="#000000"
       fill-opacity="0.87"
       xml:space="preserve"
       style="white-space:pre"
       font-family="Roboto"
       font-size="20px"
       font-weight="500"
       letter-spacing="0.15px"
       id="text380"
       x="920"
       y="2223.99"><tspan
         x="120"
         y="812.55499"
         id="tspan378">Overlay</tspan></text>
    <text
       fill="#000000"
       fill-opacity="0.87"
       xml:space="preserve"
       style="white-space:pre"
       font-family="Roboto"
       font-size="20px"
       font-weight="500"
       letter-spacing="0.15px"
       id="text376"
       x="920"
       y="2223.99"><tspan
         x="120"
         y="1277.55"
         id="tspan374">Titles</tspan></text>
    <text
       fill="#9e9e9e"
       xml:space="preserve"
       style="white-space:pre"
       font-family="Roboto"
       font-size="14px"
       font-weight="500"
       letter-spacing="0.1px"
       id="text384"
       x="920"
       y="2223.99"><tspan
         x="432"
         y="1333.99"
         id="tspan382">Avatar left</tspan></text>
    <text
       fill="#9e9e9e"
       xml:space="preserve"
       style="white-space:pre"
       font-family="Roboto"
       font-size="14px"
       font-weight="500"
       letter-spacing="0.1px"
       id="text388"
       x="920"
       y="2223.99"><tspan
         x="744"
         y="1333.99"
         id="tspan386">Avatar right</tspan></text>
    <text
       fill="#9e9e9e"
       xml:space="preserve"
       style="white-space:pre"
       font-family="Roboto"
       font-size="14px"
       font-weight="500"
       letter-spacing="0.1px"
       id="text392"
       x="920"
       y="2223.99"><tspan
         x="1056"
         y="1333.99"
         id="tspan390">Icon right</tspan></text>
    <text
       fill="#9e9e9e"
       xml:space="preserve"
       style="white-space:pre"
       font-family="Roboto"
       font-size="14px"
       font-weight="500"
       letter-spacing="0.1px"
       id="text396"
       x="920"
       y="2223.99"><tspan
         x="120"
         y="1333.99"
         id="tspan394">Default</tspan></text>
    <text
       fill="#9e9e9e"
       xml:space="preserve"
       style="white-space:pre"
       font-family="Roboto"
       font-size="14px"
       font-weight="500"
       letter-spacing="0.1px"
       id="text400"
       x="920"
       y="2223.99"><tspan
         x="120"
         y="1558.99"
         id="tspan398">Avatar and icon</tspan></text>
    <text
       fill="#9e9e9e"
       xml:space="preserve"
       style="white-space:pre"
       font-family="Roboto"
       font-size="14px"
       font-weight="500"
       letter-spacing="0.1px"
       id="text404"
       x="920"
       y="2223.99"><tspan
         x="120"
         y="1961.99"
         id="tspan402">Image top</tspan></text>
    <text
       fill="#9e9e9e"
       xml:space="preserve"
       style="white-space:pre"
       font-family="Roboto"
       font-size="14px"
       font-weight="500"
       letter-spacing="0.1px"
       id="text408"
       x="920"
       y="2223.99"><tspan
         x="120"
         y="2428.99"
         id="tspan406">Image top</tspan></text>
    <text
       fill="#9e9e9e"
       xml:space="preserve"
       style="white-space:pre"
       font-family="Roboto"
       font-size="14px"
       font-weight="500"
       letter-spacing="0.1px"
       id="text412"
       x="920"
       y="2223.99"><tspan
         x="522"
         y="2428.99"
         id="tspan410">Image top + icons</tspan></text>
    <text
       fill="#9e9e9e"
       xml:space="preserve"
       style="white-space:pre"
       font-family="Roboto"
       font-size="14px"
       font-weight="500"
       letter-spacing="0.1px"
       id="text416"
       x="920"
       y="2223.99"><tspan
         x="520"
         y="1961.99"
         id="tspan414">Title top</tspan></text>
    <text
       fill="#9e9e9e"
       xml:space="preserve"
       style="white-space:pre"
       font-family="Roboto"
       font-size="14px"
       font-weight="500"
       letter-spacing="0.1px"
       id="text420"
       x="920"
       y="2223.99"><tspan
         x="920"
         y="1961.99"
         id="tspan418">Image left - outlined</tspan></text>
    <text
       fill="#9e9e9e"
       xml:space="preserve"
       style="white-space:pre"
       font-family="Roboto"
       font-size="14px"
       font-weight="500"
       letter-spacing="0.1px"
       id="text424"
       x="920"
       y="2223.99"><tspan
         x="920"
         y="2223.99"
         id="tspan422">Image left</tspan></text>
    <path
       style="fill:none;stroke:#000000;stroke-width:1"
       d="M 1,2 V 2"
       id="path289" />
  </g>
</svg>
