<?xml version="1.0" encoding="UTF-8" standalone="no"?>
<svg
   width="252.42383"
   height="32.672363"
   viewBox="0 0 252.42383 32.672363"
   fill="none"
   version="1.1"
   id="svg853"
   xmlns="http://www.w3.org/2000/svg"
   xmlns:svg="http://www.w3.org/2000/svg">
  <mask
     id="mask2_0_1"
     maskUnits="userSpaceOnUse"
     x="1168"
     y="1998"
     width="80"
     height="80">
    <rect
       x="1168"
       y="1998"
       width="80"
       height="80"
       rx="4"
       fill="#c4c4c4"
       id="rect116" />
  </mask>
  <mask
     id="mask5_0_1"
     maskUnits="userSpaceOnUse"
     x="520"
     y="2449"
     width="168"
     height="168">
    <path
       d="m 520,2453 c 0,-2.21 1.791,-4 4,-4 h 160 c 2.209,0 4,1.79 4,4 v 164 H 520 Z"
       fill="#c4c4c4"
       id="path183" />
  </mask>
  <defs
     id="defs851" />
  <g
     id="New_Layer_1653429002.6752553"
     style="display:inline"
     transform="translate(-1056.5762,-1436.073)">
    <g
       id="g4755">
      <text
         fill="#000000"
         fill-opacity="0.87"
         xml:space="preserve"
         style="white-space:pre"
         font-family="Roboto"
         font-size="10px"
         letter-spacing="1.5px"
         id="text5506"
         x="1056"
         y="1468.55"><tspan
           x="1056"
           y="1443.28"
           id="tspan5504">OVERLINE</tspan></text>
      <text
         fill="#000000"
         fill-opacity="0.87"
         xml:space="preserve"
         style="white-space:pre"
         font-family="Roboto"
         font-size="20px"
         font-weight="500"
         letter-spacing="0.15px"
         id="text5510"
         x="1056"
         y="1468.55"><tspan
           x="1056"
           y="1468.55"
           id="tspan5508">Headline</tspan></text>
      <path
         d="m 1306,1461.08 c -0.76,0 -1.44,0.3 -1.96,0.77 l -7.13,-4.15 c 0.05,-0.23 0.09,-0.46 0.09,-0.7 0,-0.24 -0.04,-0.47 -0.09,-0.7 l 7.05,-4.11 c 0.54,0.5 1.25,0.81 2.04,0.81 1.66,0 3,-1.34 3,-3 0,-1.66 -1.34,-3 -3,-3 -1.66,0 -3,1.34 -3,3 0,0.24 0.04,0.47 0.09,0.7 l -7.05,4.11 c -0.54,-0.5 -1.25,-0.81 -2.04,-0.81 -1.66,0 -3,1.34 -3,3 0,1.66 1.34,3 3,3 0.79,0 1.5,-0.31 2.04,-0.81 l 7.12,4.16 c -0.05,0.21 -0.08,0.43 -0.08,0.65 0,1.61 1.31,2.92 2.92,2.92 1.61,0 2.92,-1.31 2.92,-2.92 0,-1.61 -1.31,-2.92 -2.92,-2.92 z"
         fill="#000000"
         fill-opacity="0.54"
         id="path5512" />
    </g>
  </g>
</svg>
