<?xml version="1.0" encoding="UTF-8" standalone="no"?>
<svg
   width="143.5461"
   height="40.977295"
   viewBox="0 0 143.5461 40.977295"
   fill="none"
   version="1.1"
   id="svg853"
   xmlns="http://www.w3.org/2000/svg"
   xmlns:svg="http://www.w3.org/2000/svg">
  <mask
     id="mask2_0_1"
     maskUnits="userSpaceOnUse"
     x="1168"
     y="1998"
     width="80"
     height="80">
    <rect
       x="1168"
       y="1998"
       width="80"
       height="80"
       rx="4"
       fill="#c4c4c4"
       id="rect116" />
  </mask>
  <mask
     id="mask5_0_1"
     maskUnits="userSpaceOnUse"
     x="520"
     y="2449"
     width="168"
     height="168">
    <path
       d="m 520,2453 c 0,-2.21 1.791,-4 4,-4 h 160 c 2.209,0 4,1.79 4,4 v 164 H 520 Z"
       fill="#c4c4c4"
       id="path183" />
  </mask>
  <defs
     id="defs851" />
  <g
     id="New_Layer_1653429002.676449"
     style="display:inline"
     transform="translate(-432,-1360)">
    <g
       id="g4378">
      <path
         d="m 452,1360 c -11.04,0 -20,8.96 -20,20 0,11.04 8.96,20 20,20 11.04,0 20,-8.96 20,-20 0,-11.04 -8.96,-20 -20,-20 z m 0,6 c 3.32,0 6,2.68 6,6 0,3.32 -2.68,6 -6,6 -3.32,0 -6,-2.68 -6,-6 0,-3.32 2.68,-6 6,-6 z m 0,28.4 c -5,0 -9.42,-2.56 -12,-6.44 0.06,-3.98 8,-6.16 12,-6.16 3.98,0 11.94,2.18 12,6.16 -2.58,3.88 -7,6.44 -12,6.44 z"
         fill="#000000"
         fill-opacity="0.24"
         id="path5538" />
      <text
         fill="#000000"
         fill-opacity="0.87"
         xml:space="preserve"
         style="white-space:pre"
         font-family="Roboto"
         font-size="20px"
         font-weight="500"
         letter-spacing="0.15px"
         id="text5542"
         x="496"
         y="1397.99"><tspan
           x="496"
           y="1375.84"
           id="tspan5540">Headline</tspan></text>
      <text
         fill="#000000"
         fill-opacity="0.6"
         xml:space="preserve"
         style="white-space:pre"
         font-family="Roboto"
         font-size="14px"
         letter-spacing="0.25px"
         id="text5546"
         x="496"
         y="1397.99"><tspan
           x="496"
           y="1397.99"
           id="tspan5544">Body</tspan></text>
    </g>
  </g>
</svg>
