<?xml version="1.0" encoding="UTF-8" standalone="no"?>
<svg
   width="354"
   height="391"
   viewBox="0 0 354 391"
   fill="none"
   version="1.1"
   id="svg853"
   xmlns="http://www.w3.org/2000/svg"
   xmlns:svg="http://www.w3.org/2000/svg">
  <mask
     id="mask2_0_1"
     maskUnits="userSpaceOnUse"
     x="1168"
     y="1998"
     width="80"
     height="80">
    <rect
       x="1168"
       y="1998"
       width="80"
       height="80"
       rx="4"
       fill="#c4c4c4"
       id="rect116" />
  </mask>
  <mask
     id="mask5_0_1"
     maskUnits="userSpaceOnUse"
     x="520"
     y="2449"
     width="168"
     height="168">
    <path
       d="m 520,2453 c 0,-2.21 1.791,-4 4,-4 h 160 c 2.209,0 4,1.79 4,4 v 164 H 520 Z"
       fill="#c4c4c4"
       id="path183" />
  </mask>
  <defs
     id="defs851">
    <filter
       id="filter1_ddd_0_1"
       x="515"
       y="1978"
       width="354"
       height="391"
       filterUnits="userSpaceOnUse"
       color-interpolation-filters="sRGB">
      <feFlood
         flood-opacity="0"
         result="BackgroundImageFix"
         id="feFlood477" />
      <feColorMatrix
         in="SourceAlpha"
         type="matrix"
         values="0 0 0 0 0 0 0 0 0 0 0 0 0 0 0 0 0 0 127 0"
         result="hardAlpha"
         id="feColorMatrix479" />
      <feOffset
         dy="2"
         id="feOffset481" />
      <feGaussianBlur
         stdDeviation="2"
         id="feGaussianBlur483" />
      <feColorMatrix
         type="matrix"
         values="0 0 0 0 0 0 0 0 0 0 0 0 0 0 0 0 0 0 0.14 0"
         id="feColorMatrix485" />
      <feBlend
         mode="normal"
         in2="BackgroundImageFix"
         result="effect1_dropShadow_0_1"
         id="feBlend487" />
      <feColorMatrix
         in="SourceAlpha"
         type="matrix"
         values="0 0 0 0 0 0 0 0 0 0 0 0 0 0 0 0 0 0 127 0"
         result="hardAlpha"
         id="feColorMatrix489" />
      <feOffset
         dy="3"
         id="feOffset491" />
      <feGaussianBlur
         stdDeviation="2"
         id="feGaussianBlur493" />
      <feColorMatrix
         type="matrix"
         values="0 0 0 0 0 0 0 0 0 0 0 0 0 0 0 0 0 0 0.12 0"
         id="feColorMatrix495" />
      <feBlend
         mode="normal"
         in2="effect1_dropShadow_0_1"
         result="effect2_dropShadow_0_1"
         id="feBlend497" />
      <feColorMatrix
         in="SourceAlpha"
         type="matrix"
         values="0 0 0 0 0 0 0 0 0 0 0 0 0 0 0 0 0 0 127 0"
         result="hardAlpha"
         id="feColorMatrix499" />
      <feOffset
         dy="1"
         id="feOffset501" />
      <feGaussianBlur
         stdDeviation="2.5"
         id="feGaussianBlur503" />
      <feColorMatrix
         type="matrix"
         values="0 0 0 0 0 0 0 0 0 0 0 0 0 0 0 0 0 0 0.2 0"
         id="feColorMatrix505" />
      <feBlend
         mode="normal"
         in2="effect2_dropShadow_0_1"
         result="effect3_dropShadow_0_1"
         id="feBlend507" />
      <feBlend
         mode="normal"
         in="SourceGraphic"
         in2="effect3_dropShadow_0_1"
         result="shape"
         id="feBlend509" />
    </filter>
  </defs>
  <g
     id="New_Layer_1653429002.668657"
     style="display:inline"
     transform="translate(-515,-1978)">
    <g
       filter="url(#filter1_ddd_0_1)"
       id="g8081">
      <path
         d="m 520,1986 c 0,-2.21 1.791,-4 4,-4 h 336 c 2.209,0 4,1.79 4,4 v 372 c 0,2.21 -1.791,4 -4,4 H 524 c -2.209,0 -4,-1.79 -4,-4 z"
         fill="#ffffff"
         id="path5292" />
      <path
         d="m 556,2000 c -11.04,0 -20,8.96 -20,20 0,11.04 8.96,20 20,20 11.04,0 20,-8.96 20,-20 0,-11.04 -8.96,-20 -20,-20 z m 0,6 c 3.32,0 6,2.68 6,6 0,3.32 -2.68,6 -6,6 -3.32,0 -6,-2.68 -6,-6 0,-3.32 2.68,-6 6,-6 z m 0,28.4 c -5,0 -9.42,-2.56 -12,-6.44 0.06,-3.98 8,-6.16 12,-6.16 3.98,0 11.94,2.18 12,6.16 -2.58,3.88 -7,6.44 -12,6.44 z"
         fill="#000000"
         fill-opacity="0.24"
         id="path5294" />
      <text
         fill="#000000"
         fill-opacity="0.87"
         xml:space="preserve"
         style="white-space:pre"
         font-family="Roboto"
         font-size="20px"
         font-weight="500"
         letter-spacing="0.15px"
         id="text5298"
         x="622.00201"
         y="2342.79"><tspan
           x="600"
           y="2015.84"
           id="tspan5296">Headline</tspan></text>
      <text
         fill="#000000"
         fill-opacity="0.6"
         xml:space="preserve"
         style="white-space:pre"
         font-family="Roboto"
         font-size="14px"
         letter-spacing="0.25px"
         id="text5302"
         x="622.00201"
         y="2342.79"><tspan
           x="600"
           y="2037.99"
           id="tspan5300">Body</tspan></text>
      <path
         d="m 842,2024.08 c -0.76,0 -1.44,0.3 -1.96,0.77 l -7.13,-4.15 c 0.05,-0.23 0.09,-0.46 0.09,-0.7 0,-0.24 -0.04,-0.47 -0.09,-0.7 l 7.05,-4.11 c 0.54,0.5 1.25,0.81 2.04,0.81 1.66,0 3,-1.34 3,-3 0,-1.66 -1.34,-3 -3,-3 -1.66,0 -3,1.34 -3,3 0,0.24 0.04,0.47 0.09,0.7 l -7.05,4.11 c -0.54,-0.5 -1.25,-0.81 -2.04,-0.81 -1.66,0 -3,1.34 -3,3 0,1.66 1.34,3 3,3 0.79,0 1.5,-0.31 2.04,-0.81 l 7.12,4.16 c -0.05,0.21 -0.08,0.43 -0.08,0.65 0,1.61 1.31,2.92 2.92,2.92 1.61,0 2.92,-1.31 2.92,-2.92 0,-1.61 -1.31,-2.92 -2.92,-2.92 z"
         fill="#000000"
         fill-opacity="0.54"
         id="path5304" />
      <rect
         x="520"
         y="2054"
         width="344"
         height="194"
         fill="#c4c4c4"
         id="rect5306" />
      <text
         fill="#000000"
         fill-opacity="0.6"
         xml:space="preserve"
         style="white-space:pre"
         font-family="Roboto"
         font-size="14px"
         letter-spacing="0.25px"
         id="text5312"
         x="622.00201"
         y="2342.79"><tspan
           x="536"
           y="2276.99"
           id="tspan5308">Greyhound divisively hello coldly wonderfully </tspan><tspan
           x="536"
           y="2297.99"
           id="tspan5310">marginally far upon excluding.</tspan></text>
      <text
         fill="#2196f3"
         xml:space="preserve"
         style="white-space:pre"
         font-family="Roboto"
         font-size="14px"
         font-weight="500"
         letter-spacing="1.25px"
         id="text5316"
         x="622.00201"
         y="2342.79"><tspan
           x="536.00201"
           y="2342.79"
           id="tspan5314">BUTTON</tspan></text>
      <text
         fill="#2196f3"
         xml:space="preserve"
         style="white-space:pre"
         font-family="Roboto"
         font-size="14px"
         font-weight="500"
         letter-spacing="1.25px"
         id="text5320"
         x="622.00201"
         y="2342.79"><tspan
           x="622.00201"
           y="2342.79"
           id="tspan5318">BUTTON</tspan></text>
    </g>
  </g>
</svg>
