<?xml version="1.0" encoding="UTF-8" standalone="no"?>
<svg
   width="354"
   height="389"
   viewBox="0 0 354 389"
   fill="none"
   version="1.1"
   id="svg853"
   xmlns="http://www.w3.org/2000/svg"
   xmlns:svg="http://www.w3.org/2000/svg">
  <mask
     id="mask2_0_1"
     maskUnits="userSpaceOnUse"
     x="1168"
     y="1998"
     width="80"
     height="80">
    <rect
       x="1168"
       y="1998"
       width="80"
       height="80"
       rx="4"
       fill="#c4c4c4"
       id="rect116" />
  </mask>
  <mask
     id="mask5_0_1"
     maskUnits="userSpaceOnUse"
     x="520"
     y="2449"
     width="168"
     height="168">
    <path
       d="m 520,2453 c 0,-2.21 1.791,-4 4,-4 h 160 c 2.209,0 4,1.79 4,4 v 164 H 520 Z"
       fill="#c4c4c4"
       id="path183" />
  </mask>
  <defs
     id="defs851">
    <filter
       id="filter2_ddd_0_1"
       x="115"
       y="1978"
       width="354"
       height="389"
       filterUnits="userSpaceOnUse"
       color-interpolation-filters="sRGB">
      <feFlood
         flood-opacity="0"
         result="BackgroundImageFix"
         id="feFlood515" />
      <feColorMatrix
         in="SourceAlpha"
         type="matrix"
         values="0 0 0 0 0 0 0 0 0 0 0 0 0 0 0 0 0 0 127 0"
         result="hardAlpha"
         id="feColorMatrix517" />
      <feOffset
         dy="2"
         id="feOffset519" />
      <feGaussianBlur
         stdDeviation="2"
         id="feGaussianBlur521" />
      <feColorMatrix
         type="matrix"
         values="0 0 0 0 0 0 0 0 0 0 0 0 0 0 0 0 0 0 0.14 0"
         id="feColorMatrix523" />
      <feBlend
         mode="normal"
         in2="BackgroundImageFix"
         result="effect1_dropShadow_0_1"
         id="feBlend525" />
      <feColorMatrix
         in="SourceAlpha"
         type="matrix"
         values="0 0 0 0 0 0 0 0 0 0 0 0 0 0 0 0 0 0 127 0"
         result="hardAlpha"
         id="feColorMatrix527" />
      <feOffset
         dy="3"
         id="feOffset529" />
      <feGaussianBlur
         stdDeviation="2"
         id="feGaussianBlur531" />
      <feColorMatrix
         type="matrix"
         values="0 0 0 0 0 0 0 0 0 0 0 0 0 0 0 0 0 0 0.12 0"
         id="feColorMatrix533" />
      <feBlend
         mode="normal"
         in2="effect1_dropShadow_0_1"
         result="effect2_dropShadow_0_1"
         id="feBlend535" />
      <feColorMatrix
         in="SourceAlpha"
         type="matrix"
         values="0 0 0 0 0 0 0 0 0 0 0 0 0 0 0 0 0 0 127 0"
         result="hardAlpha"
         id="feColorMatrix537" />
      <feOffset
         dy="1"
         id="feOffset539" />
      <feGaussianBlur
         stdDeviation="2.5"
         id="feGaussianBlur541" />
      <feColorMatrix
         type="matrix"
         values="0 0 0 0 0 0 0 0 0 0 0 0 0 0 0 0 0 0 0.2 0"
         id="feColorMatrix543" />
      <feBlend
         mode="normal"
         in2="effect2_dropShadow_0_1"
         result="effect3_dropShadow_0_1"
         id="feBlend545" />
      <feBlend
         mode="normal"
         in="SourceGraphic"
         in2="effect3_dropShadow_0_1"
         result="shape"
         id="feBlend547" />
    </filter>
  </defs>
  <g
     id="New_Layer_1653429002.669089"
     style="display:inline"
     transform="translate(-115,-1978)">
    <g
       filter="url(#filter2_ddd_0_1)"
       id="g3172">
      <g
         id="g5354">
        <path
           d="m 120,1986 c 0,-2.21 1.791,-4 4,-4 h 336 c 2.209,0 4,1.79 4,4 v 370 c 0,2.21 -1.791,4 -4,4 H 124 c -2.209,0 -4,-1.79 -4,-4 z"
           fill="#fafafa"
           id="path5324" />
        <path
           d="m 120,1986 c 0,-2.21 1.791,-4 4,-4 h 336 c 2.209,0 4,1.79 4,4 v 190 H 120 Z"
           fill="#c4c4c4"
           id="path5326" />
        <path
           d="m 156,2195 c -11.04,0 -20,8.96 -20,20 0,11.04 8.96,20 20,20 11.04,0 20,-8.96 20,-20 0,-11.04 -8.96,-20 -20,-20 z m 0,6 c 3.32,0 6,2.68 6,6 0,3.32 -2.68,6 -6,6 -3.32,0 -6,-2.68 -6,-6 0,-3.32 2.68,-6 6,-6 z m 0,28.4 c -5,0 -9.42,-2.56 -12,-6.44 0.06,-3.98 8,-6.16 12,-6.16 3.98,0 11.94,2.18 12,6.16 -2.58,3.88 -7,6.44 -12,6.44 z"
           fill="#000000"
           fill-opacity="0.24"
           id="path5328" />
        <text
           fill="#000000"
           fill-opacity="0.87"
           xml:space="preserve"
           style="white-space:pre"
           font-family="Roboto"
           font-size="10px"
           letter-spacing="1.5px"
           id="text5332"
           x="222.002"
           y="2340.79"><tspan
             x="200"
             y="2201.4199"
             id="tspan5330">OVERLINE</tspan></text>
        <text
           fill="#000000"
           fill-opacity="0.87"
           xml:space="preserve"
           style="white-space:pre"
           font-family="Roboto"
           font-size="20px"
           font-weight="500"
           letter-spacing="0.15px"
           id="text5336"
           x="222.002"
           y="2340.79"><tspan
             x="200"
             y="2229.8401"
             id="tspan5334">Headline</tspan></text>
        <path
           d="m 442,2219.08 c -0.76,0 -1.44,0.3 -1.96,0.77 l -7.13,-4.15 c 0.05,-0.23 0.09,-0.46 0.09,-0.7 0,-0.24 -0.04,-0.47 -0.09,-0.7 l 7.05,-4.11 c 0.54,0.5 1.25,0.81 2.04,0.81 1.66,0 3,-1.34 3,-3 0,-1.66 -1.34,-3 -3,-3 -1.66,0 -3,1.34 -3,3 0,0.24 0.04,0.47 0.09,0.7 l -7.05,4.11 c -0.54,-0.5 -1.25,-0.81 -2.04,-0.81 -1.66,0 -3,1.34 -3,3 0,1.66 1.34,3 3,3 0.79,0 1.5,-0.31 2.04,-0.81 l 7.12,4.16 c -0.05,0.21 -0.08,0.43 -0.08,0.65 0,1.61 1.31,2.92 2.92,2.92 1.61,0 2.92,-1.31 2.92,-2.92 0,-1.61 -1.31,-2.92 -2.92,-2.92 z"
           fill="#000000"
           fill-opacity="0.54"
           id="path5338" />
        <text
           fill="#000000"
           fill-opacity="0.6"
           xml:space="preserve"
           style="white-space:pre"
           font-family="Roboto"
           font-size="14px"
           letter-spacing="0.25px"
           id="text5344"
           x="222.002"
           y="2340.79"><tspan
             x="136"
             y="2274.99"
             id="tspan5340">Greyhound divisively hello coldly wonderfully </tspan><tspan
             x="136"
             y="2295.99"
             id="tspan5342">marginally far upon excluding.</tspan></text>
        <text
           fill="#2196f3"
           xml:space="preserve"
           style="white-space:pre"
           font-family="Roboto"
           font-size="14px"
           font-weight="500"
           letter-spacing="1.25px"
           id="text5348"
           x="222.002"
           y="2340.79"><tspan
             x="136.002"
             y="2340.79"
             id="tspan5346">BUTTON</tspan></text>
        <text
           fill="#2196f3"
           xml:space="preserve"
           style="white-space:pre"
           font-family="Roboto"
           font-size="14px"
           font-weight="500"
           letter-spacing="1.25px"
           id="text5352"
           x="222.002"
           y="2340.79"><tspan
             x="222.002"
             y="2340.79"
             id="tspan5350">BUTTON</tspan></text>
      </g>
    </g>
  </g>
</svg>
