<?xml version="1.0" encoding="UTF-8" standalone="no"?>
<svg
   width="256"
   height="172"
   viewBox="0 0 256 172"
   fill="none"
   version="1.1"
   id="svg1021"
   xmlns="http://www.w3.org/2000/svg"
   xmlns:svg="http://www.w3.org/2000/svg">
  <mask
     id="mask0_0_1"
     maskUnits="userSpaceOnUse"
     x="1256"
     y="4298"
     width="40"
     height="40">
    <circle
       cx="1276"
       cy="4318"
       r="20"
       fill="#c4c4c4"
       id="circle486" />
  </mask>
  <mask
     id="mask1_0_1"
     maskUnits="userSpaceOnUse"
     x="1256"
     y="4475"
     width="40"
     height="40">
    <circle
       cx="1276"
       cy="4495"
       r="20"
       fill="#c4c4c4"
       id="circle573" />
  </mask>
  <mask
     id="mask2_0_1"
     maskUnits="userSpaceOnUse"
     x="1256"
     y="4652"
     width="40"
     height="40">
    <circle
       cx="1276"
       cy="4672"
       r="20"
       fill="#c4c4c4"
       id="circle636" />
  </mask>
  <defs
     id="defs1019" />
  <g
     id="New_Layer_1653430155.3634343"
     style="display:inline"
     transform="translate(-120,-792)">
    <g
       id="g9080">
      <path
         fill-rule="evenodd"
         clip-rule="evenodd"
         d="M 120,792 V 964 H 376 V 792 Z"
         fill="#ffffff"
         id="path4036" />
      <path
         d="m 156,832 c -11.04,0 -20,8.96 -20,20 0,11.04 8.96,20 20,20 11.04,0 20,-8.96 20,-20 0,-11.04 -8.96,-20 -20,-20 z m 0,6 c 3.32,0 6,2.68 6,6 0,3.32 -2.68,6 -6,6 -3.32,0 -6,-2.68 -6,-6 0,-3.32 2.68,-6 6,-6 z m 0,28.4 c -5,0 -9.42,-2.56 -12,-6.44 0.06,-3.98 8,-6.16 12,-6.16 3.98,0 11.94,2.18 12,6.16 -2.58,3.88 -7,6.44 -12,6.44 z"
         fill="#000000"
         fill-opacity="0.24"
         id="path4038" />
      <rect
         x="120"
         y="963"
         width="256"
         height="1"
         fill="#e5e5e5"
         id="rect4040" />
      <text
         fill="#000000"
         fill-opacity="0.6"
         xml:space="preserve"
         style="white-space:pre"
         font-family="Roboto"
         font-size="14px"
         letter-spacing="0.25px"
         id="text4044"
         x="136"
         y="914.55499"><tspan
           x="136"
           y="941.28497"
           id="tspan4042">Additional info (email)</tspan></text>
      <path
         d="m 343,934 5,5 5,-5 z"
         fill="#000000"
         fill-opacity="0.54"
         id="path4046" />
      <text
         fill="#000000"
         fill-opacity="0.87"
         xml:space="preserve"
         style="white-space:pre"
         font-family="Roboto"
         font-size="20px"
         font-weight="500"
         letter-spacing="0.15px"
         id="text4050"
         x="136"
         y="914.55499"><tspan
           x="136"
           y="914.55499"
           id="tspan4048">Title</tspan></text>
    </g>
  </g>
</svg>
