<?xml version="1.0" encoding="UTF-8" standalone="no"?>
<svg
   width="256"
   height="600"
   viewBox="0 0 256 600"
   fill="none"
   version="1.1"
   id="svg1021"
   xmlns="http://www.w3.org/2000/svg"
   xmlns:svg="http://www.w3.org/2000/svg">
  <mask
     id="mask0_0_1"
     maskUnits="userSpaceOnUse"
     x="1256"
     y="4298"
     width="40"
     height="40">
    <circle
       cx="1276"
       cy="4318"
       r="20"
       fill="#c4c4c4"
       id="circle486" />
  </mask>
  <mask
     id="mask1_0_1"
     maskUnits="userSpaceOnUse"
     x="1256"
     y="4475"
     width="40"
     height="40">
    <circle
       cx="1276"
       cy="4495"
       r="20"
       fill="#c4c4c4"
       id="circle573" />
  </mask>
  <mask
     id="mask2_0_1"
     maskUnits="userSpaceOnUse"
     x="1256"
     y="4652"
     width="40"
     height="40">
    <circle
       cx="1276"
       cy="4672"
       r="20"
       fill="#c4c4c4"
       id="circle636" />
  </mask>
  <defs
     id="defs1019" />
  <g
     id="New_Layer_1653430155.3643696"
     style="display:inline"
     transform="translate(-432,-1639)">
    <g
       id="g2293">
      <rect
         x="432"
         y="1639"
         width="256"
         height="600"
         fill="#ffffff"
         id="rect4132" />
      <rect
         x="687"
         y="1639"
         width="1"
         height="600"
         fill="#e5e5e5"
         id="rect4134" />
      <path
         fill-rule="evenodd"
         clip-rule="evenodd"
         d="m 432,1639 v 144 h 255 v -144 z"
         fill="#ffffff"
         id="path4136" />
      <path
         d="m 468,1679 c -11.04,0 -20,8.96 -20,20 0,11.04 8.96,20 20,20 11.04,0 20,-8.96 20,-20 0,-11.04 -8.96,-20 -20,-20 z m 0,6 c 3.32,0 6,2.68 6,6 0,3.32 -2.68,6 -6,6 -3.32,0 -6,-2.68 -6,-6 0,-3.32 2.68,-6 6,-6 z m 0,28.4 c -5,0 -9.42,-2.56 -12,-6.44 0.06,-3.98 8,-6.16 12,-6.16 3.98,0 11.94,2.18 12,6.16 -2.58,3.88 -7,6.44 -12,6.44 z"
         fill="#000000"
         fill-opacity="0.24"
         id="path4138" />
      <rect
         x="432"
         y="1782"
         width="255"
         height="1"
         fill="#e5e5e5"
         id="rect4140" />
      <path
         d="m 654,1754 5,5 5,-5 z"
         fill="#000000"
         fill-opacity="0.54"
         id="path4142" />
      <text
         fill="#000000"
         fill-opacity="0.87"
         xml:space="preserve"
         style="white-space:pre"
         font-family="Roboto"
         font-size="20px"
         font-weight="500"
         letter-spacing="0.15px"
         id="text4146"
         x="504"
         y="2111.99"><tspan
           x="448"
           y="1761.55"
           id="tspan4144">Title</tspan></text>
      <rect
         x="440"
         y="2040"
         width="239"
         height="40"
         rx="4"
         fill="#000000"
         fill-opacity="0.04"
         id="rect4148" />
      <path
         d="m 465,2051 h -10 c -1.1,0 -1.99,0.9 -1.99,2 l -0.01,16 7,-3 7,3 v -16 c 0,-1.1 -0.9,-2 -2,-2 z"
         fill="#000000"
         fill-opacity="0.54"
         id="path4150" />
      <text
         fill="#000000"
         fill-opacity="0.87"
         xml:space="preserve"
         style="white-space:pre"
         font-family="Roboto"
         font-size="14px"
         font-weight="500"
         letter-spacing="0.1px"
         id="text4154"
         x="504"
         y="2111.99"><tspan
           x="504"
           y="2063.99"
           id="tspan4152">Item List</tspan></text>
      <path
         fill-rule="evenodd"
         clip-rule="evenodd"
         d="m 584.893,2074.25 c -0.284,-0.36 -0.629,-1.09 -1.243,-1.98 -0.348,-0.51 -1.211,-1.45 -1.468,-1.94 -0.223,-0.42 -0.199,-0.61 -0.146,-0.97 0.094,-0.62 0.738,-1.11 1.425,-1.05 0.519,0.05 0.959,0.39 1.355,0.72 0.239,0.19 0.533,0.57 0.71,0.79 0.163,0.19 0.203,0.27 0.377,0.51 0.23,0.3 0.302,0.45 0.214,0.12 -0.071,-0.5 -0.187,-1.35 -0.355,-2.1 -0.128,-0.56 -0.159,-0.65 -0.281,-1.09 -0.129,-0.46 -0.195,-0.79 -0.316,-1.28 -0.084,-0.35 -0.235,-1.06 -0.276,-1.46 -0.057,-0.55 -0.087,-1.44 0.264,-1.85 0.275,-0.32 0.906,-0.42 1.297,-0.22 0.512,0.26 0.803,1.01 0.936,1.3 0.239,0.54 0.387,1.15 0.516,1.96 0.164,1.03 0.466,2.47 0.476,2.77 0.024,-0.37 -0.068,-1.15 -0.004,-1.5 0.058,-0.32 0.328,-0.7 0.666,-0.8 0.286,-0.08 0.621,-0.11 0.916,-0.05 0.313,0.06 0.643,0.28 0.766,0.5 0.362,0.62 0.369,1.89 0.384,1.83 0.086,-0.38 0.071,-1.23 0.284,-1.59 0.14,-0.23 0.497,-0.44 0.687,-0.48 0.294,-0.05 0.655,-0.06 0.964,0 0.249,0.04 0.586,0.34 0.677,0.48 0.218,0.35 0.342,1.32 0.379,1.66 0.015,0.14 0.074,-0.39 0.293,-0.74 0.406,-0.63 1.843,-0.76 1.898,0.64 0.025,0.66 0.02,0.63 0.02,1.07 0,0.51 -0.012,0.83 -0.04,1.2 -0.031,0.4 -0.117,1.3 -0.242,1.74 -0.086,0.3 -0.371,0.98 -0.652,1.39 0,0 -1.074,1.25 -1.191,1.81 -0.118,0.56 -0.079,0.56 -0.102,0.96 -0.023,0.4 0.121,0.93 0.121,0.93 0,0 -0.802,0.1 -1.234,0.03 -0.391,-0.06 -0.875,-0.84 -1,-1.08 -0.172,-0.33 -0.539,-0.26 -0.682,-0.02 -0.225,0.38 -0.709,1.07 -1.051,1.11 -0.668,0.09 -2.054,0.03 -3.139,0.02 0,0 0.185,-1.01 -0.227,-1.36 -0.305,-0.26 -0.83,-0.78 -1.144,-1.06 z"
         fill="#ffffff"
         id="path4156" />
      <path
         fill-rule="evenodd"
         clip-rule="evenodd"
         d="m 584.893,2074.25 c -0.284,-0.36 -0.629,-1.09 -1.243,-1.98 -0.348,-0.51 -1.211,-1.45 -1.468,-1.94 -0.223,-0.42 -0.199,-0.61 -0.146,-0.97 0.094,-0.62 0.738,-1.11 1.425,-1.05 0.519,0.05 0.959,0.39 1.355,0.72 0.239,0.19 0.533,0.57 0.71,0.79 0.163,0.19 0.203,0.27 0.377,0.51 0.23,0.3 0.302,0.45 0.214,0.12 -0.071,-0.5 -0.187,-1.35 -0.355,-2.1 -0.128,-0.56 -0.159,-0.65 -0.281,-1.09 -0.129,-0.46 -0.195,-0.79 -0.316,-1.28 -0.084,-0.35 -0.235,-1.06 -0.276,-1.46 -0.057,-0.55 -0.087,-1.44 0.264,-1.85 0.275,-0.32 0.906,-0.42 1.297,-0.22 0.512,0.26 0.803,1.01 0.936,1.3 0.239,0.54 0.387,1.15 0.516,1.96 0.164,1.03 0.466,2.47 0.476,2.77 0.024,-0.37 -0.068,-1.15 -0.004,-1.5 0.058,-0.32 0.328,-0.7 0.666,-0.8 0.286,-0.08 0.621,-0.11 0.916,-0.05 0.313,0.06 0.643,0.28 0.766,0.5 0.362,0.62 0.369,1.89 0.384,1.83 0.086,-0.38 0.071,-1.23 0.284,-1.59 0.14,-0.23 0.497,-0.44 0.687,-0.48 0.294,-0.05 0.655,-0.06 0.964,0 0.249,0.04 0.586,0.34 0.677,0.48 0.218,0.35 0.342,1.32 0.379,1.66 0.015,0.14 0.074,-0.39 0.293,-0.74 0.406,-0.63 1.843,-0.76 1.898,0.64 0.025,0.66 0.02,0.63 0.02,1.07 0,0.51 -0.012,0.83 -0.04,1.2 -0.031,0.4 -0.117,1.3 -0.242,1.74 -0.086,0.3 -0.371,0.98 -0.652,1.39 0,0 -1.074,1.25 -1.191,1.81 -0.118,0.56 -0.079,0.56 -0.102,0.96 -0.023,0.4 0.121,0.93 0.121,0.93 0,0 -0.802,0.1 -1.234,0.03 -0.391,-0.06 -0.875,-0.84 -1,-1.08 -0.172,-0.33 -0.539,-0.26 -0.682,-0.02 -0.225,0.38 -0.709,1.07 -1.051,1.11 -0.668,0.09 -2.054,0.03 -3.139,0.02 0,0 0.185,-1.01 -0.227,-1.36 -0.305,-0.26 -0.83,-0.78 -1.144,-1.06 z"
         stroke="#000000"
         stroke-width="0.75"
         stroke-linecap="round"
         stroke-linejoin="round"
         id="path4158" />
      <path
         d="m 593.128,2074.61 v -3.46"
         stroke="#000000"
         stroke-width="0.75"
         stroke-linecap="round"
         id="path4160" />
      <path
         d="m 591.112,2074.62 -0.016,-3.47"
         stroke="#000000"
         stroke-width="0.75"
         stroke-linecap="round"
         id="path4162" />
      <path
         d="m 589.116,2071.18 0.021,3.42"
         stroke="#000000"
         stroke-width="0.75"
         stroke-linecap="round"
         id="path4164" />
      <text
         fill="#9e9e9e"
         xml:space="preserve"
         style="white-space:pre"
         font-family="Roboto"
         font-size="14px"
         letter-spacing="0.25px"
         id="text4168"
         x="504"
         y="2111.99"><tspan
           x="448"
           y="2016.99"
           id="tspan4166">Subtitle</tspan></text>
      <path
         d="m 465,1806 h -10 c -1.1,0 -1.99,0.9 -1.99,2 l -0.01,16 7,-3 7,3 v -16 c 0,-1.1 -0.9,-2 -2,-2 z"
         fill="#000000"
         fill-opacity="0.54"
         id="path4170" />
      <text
         fill="#000000"
         fill-opacity="0.87"
         xml:space="preserve"
         style="white-space:pre"
         font-family="Roboto"
         font-size="14px"
         font-weight="500"
         letter-spacing="0.1px"
         id="text4174"
         x="504"
         y="2111.99"><tspan
           x="504"
           y="1818.99"
           id="tspan4172">Item List</tspan></text>
      <rect
         x="440"
         y="1843"
         width="239"
         height="40"
         rx="4"
         fill="#e3f2fd"
         id="rect4176" />
      <path
         d="m 465,1854 h -10 c -1.1,0 -1.99,0.9 -1.99,2 l -0.01,16 7,-3 7,3 v -16 c 0,-1.1 -0.9,-2 -2,-2 z"
         fill="#2196f3"
         id="path4178" />
      <text
         fill="#2196f3"
         xml:space="preserve"
         style="white-space:pre"
         font-family="Roboto"
         font-size="14px"
         font-weight="500"
         letter-spacing="0.1px"
         id="text4182"
         x="504"
         y="2111.99"><tspan
           x="504"
           y="1866.99"
           id="tspan4180">Item List</tspan></text>
      <path
         d="m 465,1902 h -10 c -1.1,0 -1.99,0.9 -1.99,2 l -0.01,16 7,-3 7,3 v -16 c 0,-1.1 -0.9,-2 -2,-2 z"
         fill="#000000"
         fill-opacity="0.54"
         id="path4184" />
      <text
         fill="#000000"
         fill-opacity="0.87"
         xml:space="preserve"
         style="white-space:pre"
         font-family="Roboto"
         font-size="14px"
         font-weight="500"
         letter-spacing="0.1px"
         id="text4188"
         x="504"
         y="2111.99"><tspan
           x="504"
           y="1914.99"
           id="tspan4186">Item List</tspan></text>
      <path
         d="m 465,1950 h -10 c -1.1,0 -1.99,0.9 -1.99,2 l -0.01,16 7,-3 7,3 v -16 c 0,-1.1 -0.9,-2 -2,-2 z"
         fill="#000000"
         fill-opacity="0.54"
         id="path4190" />
      <text
         fill="#000000"
         fill-opacity="0.87"
         xml:space="preserve"
         style="white-space:pre"
         font-family="Roboto"
         font-size="14px"
         font-weight="500"
         letter-spacing="0.1px"
         id="text4194"
         x="504"
         y="2111.99"><tspan
           x="504"
           y="1962.99"
           id="tspan4192">Item List</tspan></text>
      <path
         d="m 465,2099 h -10 c -1.1,0 -1.99,0.9 -1.99,2 l -0.01,16 7,-3 7,3 v -16 c 0,-1.1 -0.9,-2 -2,-2 z"
         fill="#000000"
         fill-opacity="0.54"
         id="path4196" />
      <text
         fill="#000000"
         fill-opacity="0.87"
         xml:space="preserve"
         style="white-space:pre"
         font-family="Roboto"
         font-size="14px"
         font-weight="500"
         letter-spacing="0.1px"
         id="text4200"
         x="504"
         y="2111.99"><tspan
           x="504"
           y="2111.99"
           id="tspan4198">Item List</tspan></text>
      <rect
         x="432"
         y="1991"
         width="255"
         height="1"
         fill="#e5e5e5"
         id="rect4202" />
    </g>
  </g>
</svg>
