<?xml version="1.0" encoding="UTF-8" standalone="no"?>
<svg
   width="96"
   height="64"
   viewBox="0 0 96 64"
   fill="none"
   version="1.1"
   id="svg1021"
   xmlns="http://www.w3.org/2000/svg"
   xmlns:svg="http://www.w3.org/2000/svg">
  <mask
     id="mask0_0_1"
     maskUnits="userSpaceOnUse"
     x="1256"
     y="4298"
     width="40"
     height="40">
    <circle
       cx="1276"
       cy="4318"
       r="20"
       fill="#c4c4c4"
       id="circle486" />
  </mask>
  <mask
     id="mask1_0_1"
     maskUnits="userSpaceOnUse"
     x="1256"
     y="4475"
     width="40"
     height="40">
    <circle
       cx="1276"
       cy="4495"
       r="20"
       fill="#c4c4c4"
       id="circle573" />
  </mask>
  <mask
     id="mask2_0_1"
     maskUnits="userSpaceOnUse"
     x="1256"
     y="4652"
     width="40"
     height="40">
    <circle
       cx="1276"
       cy="4672"
       r="20"
       fill="#c4c4c4"
       id="circle636" />
  </mask>
  <defs
     id="defs1019" />
  <g
     id="New_Layer_1653430155.3734374"
     style="display:inline"
     transform="translate(-744,-3344)">
    <g
       id="g4818">
      <rect
         opacity="0.16"
         x="744"
         y="3344"
         width="96"
         height="64"
         fill="#2196f3"
         id="rect4530" />
      <path
         d="m 791.99,3366 c -5.52,0 -9.99,4.48 -9.99,10 0,5.52 4.47,10 9.99,10 5.53,0 10.01,-4.48 10.01,-10 0,-5.52 -4.48,-10 -10.01,-10 z m 4.24,16 -4.23,-2.55 -4.23,2.55 1.12,-4.81 -3.73,-3.23 4.92,-0.42 1.92,-4.54 1.92,4.53 4.92,0.42 -3.73,3.23 z"
         fill="#2196f3"
         id="path4532" />
    </g>
  </g>
</svg>
