<?xml version="1.0" encoding="UTF-8" standalone="no"?>
<svg
   width="240"
   height="73.51001"
   viewBox="0 0 240 73.51001"
   fill="none"
   version="1.1"
   id="svg1021"
   xmlns="http://www.w3.org/2000/svg"
   xmlns:svg="http://www.w3.org/2000/svg">
  <mask
     id="mask0_0_1"
     maskUnits="userSpaceOnUse"
     x="1256"
     y="4298"
     width="40"
     height="40">
    <circle
       cx="1276"
       cy="4318"
       r="20"
       fill="#c4c4c4"
       id="circle486" />
  </mask>
  <mask
     id="mask1_0_1"
     maskUnits="userSpaceOnUse"
     x="1256"
     y="4475"
     width="40"
     height="40">
    <circle
       cx="1276"
       cy="4495"
       r="20"
       fill="#c4c4c4"
       id="circle573" />
  </mask>
  <mask
     id="mask2_0_1"
     maskUnits="userSpaceOnUse"
     x="1256"
     y="4652"
     width="40"
     height="40">
    <circle
       cx="1276"
       cy="4672"
       r="20"
       fill="#c4c4c4"
       id="circle636" />
  </mask>
  <defs
     id="defs1019" />
  <g
     id="New_Layer_1653430155.3613827"
     style="display:inline"
     transform="translate(-440,-1290.49)">
    <g
       id="g4105">
      <rect
         x="440"
         y="1324"
         width="240"
         height="40"
         rx="4"
         fill="#e3f2fd"
         id="rect3956" />
      <path
         d="m 465,1335 h -10 c -1.1,0 -1.99,0.9 -1.99,2 l -0.01,16 7,-3 7,3 v -16 c 0,-1.1 -0.9,-2 -2,-2 z"
         fill="#2196f3"
         id="path3958" />
      <text
         fill="#2196f3"
         xml:space="preserve"
         style="white-space:pre"
         font-family="Roboto"
         font-size="14px"
         font-weight="500"
         letter-spacing="0.1px"
         id="text3962"
         x="448"
         y="1300.99"><tspan
           x="504"
           y="1347.99"
           id="tspan3960">Item List</tspan></text>
      <text
         fill="#9e9e9e"
         xml:space="preserve"
         style="white-space:pre"
         font-family="Roboto"
         font-size="14px"
         letter-spacing="0.25px"
         id="text3966"
         x="448"
         y="1300.99"><tspan
           x="448"
           y="1300.99"
           id="tspan3964">Subtitle</tspan></text>
    </g>
  </g>
</svg>
